<svg xmlns="http://www.w3.org/2000/svg" xmlns:ev="http://www.w3.org/2001/xml-events" xmlns:xlink="http://www.w3.org/1999/xlink" width="1357.498" height="780.032" class="st16" color-interpolation-filters="sRGB" viewBox="0 0 1018.13 585.023" xml:space="preserve"><style type="text/css">.st1{visibility:visible}.st2{fill:#ed7d31;fill-opacity:.25;filter:url(#filter_2);stroke:#ed7d31;stroke-opacity:.25}.st3{fill:#d06d29;stroke:#ae5a21;stroke-width:.75}.st4{fill:#feffff;font-family:Calibri;font-size:1.5em}.st5{font-size:1em}.st6{fill:url(#grad0-15);stroke:#ae5a21;stroke-width:.75}.st7{marker-end:url(#mrkr4-22);stroke:#70ad47;stroke-linecap:round;stroke-linejoin:round;stroke-width:2}.st8,.st9{fill:#70ad47;stroke:#70ad47}.st8{fill-opacity:1;stroke-opacity:1;stroke-width:.52631578947368}.st9{fill-opacity:.25;filter:url(#filter_2);stroke-opacity:.25}.st10{fill:#61973d;stroke:#507e31;stroke-width:.75}.st11{fill:#5b9bd5;fill-opacity:.25;filter:url(#filter_2);stroke:#5b9bd5;stroke-opacity:.25}.st12{fill:url(#grad0-82);stroke:#40709c;stroke-width:.75}.st13{fill:#feffff;font-family:Calibri;font-size:2.50001em}.st14{fill:url(#grad0-169);stroke:#4f87bb;stroke-width:.75}.st15{fill:#4f87bb;font-family:Calibri;font-size:2.50001em}.st16{fill:none;fill-rule:evenodd;font-size:12px;overflow:visible;stroke-linecap:square;stroke-miterlimit:3}</style><defs id="Patterns_And_Gradients"><linearGradient id="grad0-15" x1="0" x2="1" y1="0" y2="0" gradientTransform="rotate(250 0.5 0.5)"><stop offset="0" stop-color="#d06d29" stop-opacity="1"/><stop offset=".48" stop-color="#d06d29" stop-opacity="1"/><stop offset=".82" stop-color="#ed7d31" stop-opacity="1"/></linearGradient><linearGradient id="grad0-82" x1="0" x2="1" y1="0" y2="0" gradientTransform="rotate(250 0.5 0.5)"><stop offset="0" stop-color="#4f87bb" stop-opacity="1"/><stop offset=".48" stop-color="#4f87bb" stop-opacity="1"/><stop offset=".82" stop-color="#5b9bd5" stop-opacity="1"/></linearGradient><linearGradient id="grad0-169" x1="0" x2="1" y1="0" y2="0" gradientTransform="rotate(60 0.5 0.5)"><stop offset="0" stop-color="#e9eff7" stop-opacity="1"/><stop offset=".24" stop-color="#f4f7fb" stop-opacity="1"/><stop offset=".54" stop-color="#feffff" stop-opacity="1"/></linearGradient></defs><defs id="Markers"><g id="lend4"><path d="M 2 1 L 0 0 L 2 -1 L 2 1" style="stroke:none"/></g><marker id="mrkr4-22" class="st8" markerUnits="strokeWidth" orient="auto" overflow="visible" refX="-3.8"><use transform="scale(-1.9,-1.9)" xlink:href="#lend4"/></marker></defs><defs id="Filters"><filter id="filter_2"><feGaussianBlur stdDeviation="2"/></filter></defs><g><title>Page-1</title><g id="shape1000-1" transform="translate(46.6856,-5.3478)"><title>Rounded Rectangle.1012</title><desc>D3D 12</desc><g id="shadow1000-2" class="st1" transform="matrix(1,0,0,1,0.345598,1.97279)"><rect width="108" height="45" x="0" y="540.023" class="st2"/></g><rect width="108" height="45" x="0" y="540.023" class="st3"/><text x="27.21" y="567.92" class="st4">D3D<tspan class="st5"> </tspan><tspan class="st5">12</tspan></text></g><g id="shape1001-9" transform="translate(481.936,-5.3478)"><title>Rectangle.4</title><desc>OpenGL</desc><g id="shadow1001-10" class="st1" transform="matrix(1,0,0,1,0.345598,1.97279)"><rect width="108" height="45" x="0" y="540.023" class="st2"/></g><rect width="108" height="45" x="0" y="540.023" class="st6"/><text x="24.64" y="567.92" class="st4">OpenGL</text></g><g id="shape1002-17" transform="translate(526.936,-158.266)"><title>Dynamic connector.6</title><path d="M9 585.02 L9 685.34" class="st7"/></g><g id="shape1003-23" transform="translate(481.936,-158.266)"><title>Snip Same Side Corner Rectangle.1064</title><desc>GLSL</desc><g id="shadow1003-24" class="st1"><path d="M0 585.02 L108 585.02 L108 550.82 L97.2 540.02 L10.8 540.02 L0 550.82 L0 585.02 Z" class="st9" transform="matrix(1,0,0,1,0.345598,1.97279)"/></g><path d="M0 585.02 L108 585.02 L108 550.82 L97.2 540.02 L10.8 540.02 L0 550.82 L0 585.02 Z" class="st10"/><text x="36.62" y="567.92" class="st4">GLSL</text></g><g id="shape1006-29" transform="translate(46.6856,-158.266)"><title>Rectangle.19</title><desc>DXIL</desc><g id="shadow1006-30" class="st1"><path d="M10.8 585.02 L97.2 585.02 A10.7998 10.7998 -180 0 0 108 574.22 L108 550.82 A10.7998 10.7998 -180 0 0 97.2 540.02 L10.8 540.02 A10.7998 10.7998 -180 0 0 0 550.82 L0 574.22 A10.7998 10.7998 -180 0 0 10.8 585.02 Z" class="st9" transform="matrix(1,0,0,1,0.345598,1.97279)"/></g><path d="M10.8 585.02 L97.2 585.02 A10.7998 10.7998 -180 0 0 108 574.22 L108 550.82 A10.7998 10.7998 -180 0 0 97.2 540.02 L10.8 540.02 A10.7998 10.7998 -180 0 0 0 550.82 L0 574.22 A10.7998 10.7998 -180 0 0 10.8 585.02 Z" class="st10"/><text x="37.74" y="567.92" class="st4">DXIL</text></g><g id="shape1007-35" transform="translate(91.6856,-158.266)"><title>Dynamic connector.11</title><path d="M9 585.02 L9 685.34" class="st7"/></g><g id="shape1008-40" transform="translate(604.561,-5.3478)"><title>Rectangle.38</title><desc>OpenGL ES</desc><g id="shadow1008-41" class="st1" transform="matrix(1,0,0,1,0.345598,1.97279)"><rect width="108" height="45" x="0" y="540.023" class="st2"/></g><rect width="108" height="45" x="0" y="540.023" class="st6"/><text x="14.08" y="567.92" class="st4">OpenGL ES</text></g><g id="shape1009-47" transform="translate(604.561,-158.266)"><title>Rectangle.39</title><desc>ESSL</desc><g id="shadow1009-48" class="st1"><path d="M0 585.02 L108 585.02 L108 550.82 L97.2 540.02 L10.8 540.02 L0 550.82 L0 585.02 Z" class="st9" transform="matrix(1,0,0,1,0.345598,1.97279)"/></g><path d="M0 585.02 L108 585.02 L108 550.82 L97.2 540.02 L10.8 540.02 L0 550.82 L0 585.02 Z" class="st10"/><text x="37.55" y="567.92" class="st4">ESSL</text></g><g id="shape1010-53" transform="translate(667.561,-158.266)"><title>Dynamic connector.41</title><path d="M-9 585.02 L-9 685.34" class="st7"/></g><g id="shape1011-58" transform="translate(268.748,-158.266)"><title>Rounded Rectangle.1018</title><desc>SPIR-V</desc><g id="shadow1011-59" class="st1"><path d="M10.8 585.02 L97.2 585.02 A10.7998 10.7998 -180 0 0 108 574.22 L108 550.82 A10.7998 10.7998 -180 0 0 97.2 540.02 L10.8 540.02 A10.7998 10.7998 -180 0 0 0 550.82 L0 574.22 A10.7998 10.7998 -180 0 0 10.8 585.02 Z" class="st9" transform="matrix(1,0,0,1,0.345598,1.97279)"/></g><path d="M10.8 585.02 L97.2 585.02 A10.7998 10.7998 -180 0 0 108 574.22 L108 550.82 A10.7998 10.7998 -180 0 0 97.2 540.02 L10.8 540.02 A10.7998 10.7998 -180 0 0 0 550.82 L0 574.22 A10.7998 10.7998 -180 0 0 10.8 585.02 Z" class="st10"/><text x="30.2" y="567.92" class="st4">SPIR-V</text></g><g id="shape1012-64" transform="translate(268.748,-5.3478)"><title>Rectangle.1057</title><desc>Vulkan</desc><g id="shadow1012-65" class="st1" transform="matrix(1,0,0,1,0.345598,1.97279)"><rect width="108" height="45" x="0" y="540.023" class="st2"/></g><rect width="108" height="45" x="0" y="540.023" class="st6"/><text x="28.97" y="567.92" class="st4">Vulkan</text></g><g id="shape1013-71" transform="translate(376.748,-180.766)"><title>Dynamic connector.30</title><path d="M0 585.02 L85.5 585.02 L85.5 286.82 L425.81 286.82 L425.81 325.3" class="st7"/></g><g id="shape1014-76" transform="translate(109.061,-498.074)"><title>Snip Same Side Corner Rectangle.1067</title><desc>HLSL</desc><g id="shadow1014-77" class="st1"><path d="M0 585.02 L205.31 585.02 L205.31 520.01 L184.78 499.48 L20.53 499.48 L0 520.01 L0 585.02 Z" class="st11" transform="matrix(1,0,0,1,0.345598,1.97279)"/></g><path d="M0 585.02 L205.31 585.02 L205.31 520.01 L184.78 499.48 L20.53 499.48 L0 520.01 L0 585.02 Z" class="st12"/><text x="73.81" y="551.25" class="st13">HLSL</text></g><g id="shape1015-84" transform="translate(202.717,-498.074)"><title>Dynamic connector</title><path d="M9 585.02 L9 642.61" class="st7"/></g><g id="shape1017-89" transform="translate(658.561,-312.834)"><title>Dynamic connector.1001</title><path d="M0 585.02 L0 636.01 L-122.63 636.01 L-122.63 686.99" class="st7"/></g><g id="shape1019-94" transform="translate(313.748,-158.266)"><title>Dynamic connector.1027</title><path d="M9 585.02 L9 685.34" class="st7"/></g><g id="shape1021-99" transform="translate(91.6856,-312.834)"><title>Dynamic connector.1029</title><path d="M9 585.02 L9 686.99" class="st7"/></g><g id="shape1023-104" transform="translate(313.748,-312.834)"><title>Dynamic connector.1023</title><path d="M9 585.02 L9 686.99" class="st7"/></g><g id="shape1024-109" transform="translate(649.561,-312.834)"><title>Dynamic connector.1024</title><path d="M9 585.02 L9 686.99" class="st7"/></g><g id="shape1035-114" transform="translate(748.561,-5.3478)"><title>Rectangle.1060</title><desc>Metal</desc><g id="shadow1035-115" class="st1" transform="matrix(1,0,0,1,0.345598,1.97279)"><rect width="108" height="45" x="0" y="540.023" class="st2"/></g><rect width="108" height="45" x="0" y="540.023" class="st6"/><text x="32.44" y="567.92" class="st4">Metal</text></g><g id="shape1050-121" transform="translate(748.561,-158.266)"><title>Snip Same Side Corner Rectangle.1050</title><desc>MSL</desc><g id="shadow1050-122" class="st1"><path d="M0 585.02 L108 585.02 L108 550.82 L97.2 540.02 L10.8 540.02 L0 550.82 L0 585.02 Z" class="st9" transform="matrix(1,0,0,1,0.345598,1.97279)"/></g><path d="M0 585.02 L108 585.02 L108 550.82 L97.2 540.02 L10.8 540.02 L0 550.82 L0 585.02 Z" class="st10"/><text x="38.39" y="567.92" class="st4">MSL</text></g><g id="shape1040-127" transform="translate(811.561,-158.266)"><title>Dynamic connector.1040</title><path d="M-9 585.02 L-9 685.34" class="st7"/></g><g id="shape1044-132" transform="translate(793.561,-312.834)"><title>Dynamic connector.1053</title><path d="M9 585.02 L9 686.99" class="st7"/></g><g id="shape1049-137" transform="translate(376.748,-180.766)"><title>Dynamic connector.1069</title><path d="M0 585.02 L85.5 585.02 L85.5 737.94 L97.59 737.94" class="st7"/></g><g id="shape1054-142" transform="translate(895.717,-5.3478)"><title>Rectangle.1054</title><desc>D3D 9/10/11</desc><g id="shadow1054-143" class="st1" transform="matrix(1,0,0,1,0.345598,1.97279)"><rect width="108" height="45" x="0" y="540.023" class="st2"/></g><rect width="108" height="45" x="0" y="540.023" class="st6"/><text x="6.57" y="567.92" class="st4">D3D 9/10/11</text></g><g id="shape1055-149" transform="translate(895.717,-158.266)"><title>Snip Same Side Corner Rectangle.1055</title><desc>HLSL</desc><g id="shadow1055-150" class="st1"><path d="M0 585.02 L108 585.02 L108 550.82 L97.2 540.02 L10.8 540.02 L0 550.82 L0 585.02 Z" class="st9" transform="matrix(1,0,0,1,0.345598,1.97279)"/></g><path d="M0 585.02 L108 585.02 L108 550.82 L97.2 540.02 L10.8 540.02 L0 550.82 L0 585.02 Z" class="st10"/><text x="36.69" y="567.92" class="st4">HLSL</text></g><g id="shape1056-155" transform="translate(940.717,-158.266)"><title>Dynamic connector.1056</title><path d="M9 585.02 L9 685.34" class="st7"/></g><g id="shape1057-160" transform="translate(958.717,-312.834)"><title>Dynamic connector.1057</title><path d="M-9 585.02 L-9 686.99" class="st7"/></g><g id="group1060-165" transform="translate(3.0294,-312.834)"><title>Sheet.1060</title><g id="shape1005-166"><title>Rectangle.17</title><desc>DirectXShaderCompiler</desc><rect width="417.375" height="120.054" x="0" y="464.969" class="st14"/><text x="66.29" y="516" class="st15">DirectXShaderCompiler</text></g><g id="shape1020-171"><title>Rectangle.1020</title><desc>DXIL CodeGen</desc><g id="shadow1020-172" class="st1" transform="matrix(1,0,0,1,0.345598,1.97279)"><rect width="195.312" height="45" x="0" y="540.023" class="st11"/></g><rect width="195.312" height="45" x="0" y="540.023" class="st12"/><text x="45.73" y="567.92" class="st4">DXIL CodeGen</text></g><g id="shape1022-178" transform="translate(222.063,0)"><title>Rectangle.1030</title><desc>SPIR-V CodeGen</desc><g id="shadow1022-179" class="st1" transform="matrix(1,0,0,1,0.345598,1.97279)"><rect width="195.312" height="45" x="0" y="540.023" class="st11"/></g><rect width="195.312" height="45" x="0" y="540.023" class="st12"/><text x="38.19" y="567.92" class="st4">SPIR-V CodeGen</text></g></g><g id="group1061-185" transform="translate(593.873,-312.834)"><title>Sheet.1061</title><g id="shape1016-186"><title>Rectangle.1000</title><desc>SPIRV-Cross</desc><rect width="417.375" height="120.054" x="0" y="464.969" class="st14"/><text x="136.15" y="516" class="st15">SPIRV-Cross</text></g><g id="shape1051-190" transform="translate(-1.27898E-13,-5.70774E-06)"><title>Rectangle.1051</title><desc>GLSL Compiler</desc><g id="shadow1051-191" class="st1" transform="matrix(1,0,0,1,0.345598,1.97279)"><rect width="129.375" height="45" x="0" y="540.023" class="st11"/></g><rect width="129.375" height="45" x="0" y="540.023" class="st12"/><text x="12.06" y="567.92" class="st4">GLSL Compiler</text></g><g id="shape1052-197" transform="translate(147.156,-5.70774E-06)"><title>Rectangle.1052</title><desc>MSL Compiler</desc><g id="shadow1052-198" class="st1" transform="matrix(1,0,0,1,0.345598,1.97279)"><rect width="129.375" height="45" x="0" y="540.023" class="st11"/></g><rect width="129.375" height="45" x="0" y="540.023" class="st12"/><text x="13.83" y="567.92" class="st4">MSL Compiler</text></g><g id="shape1053-204" transform="translate(291.156,-5.70774E-06)"><title>Rectangle.1053</title><desc>HLSL Compiler</desc><g id="shadow1053-205" class="st1" transform="matrix(1,0,0,1,0.345598,1.97279)"><rect width="129.375" height="45" x="0" y="540.023" class="st11"/></g><rect width="129.375" height="45" x="0" y="540.023" class="st12"/><text x="12.13" y="567.92" class="st4">HLSL Compiler</text></g></g></g></svg>